<?xml version="1.0" encoding="UTF-8" standalone="no"?>
<!-- Created with Inkscape (http://www.inkscape.org/) -->

<svg
   width="222.47266"
   height="222.47266"
   viewBox="0 0 222.47266 222.47266"
   version="1.1"
   id="svg1"
   inkscape:version="1.3.2 (091e20e, 2023-11-25, custom)"
   sodipodi:docname="progress_bars.svg"
   xmlns:inkscape="http://www.inkscape.org/namespaces/inkscape"
   xmlns:sodipodi="http://sodipodi.sourceforge.net/DTD/sodipodi-0.dtd"
   xmlns="http://www.w3.org/2000/svg"
   xmlns:svg="http://www.w3.org/2000/svg">
  <sodipodi:namedview
     id="namedview1"
     pagecolor="#d1d1d1"
     bordercolor="#eeeeee"
     borderopacity="1"
     inkscape:showpageshadow="0"
     inkscape:pageopacity="0"
     inkscape:pagecheckerboard="0"
     inkscape:deskcolor="#d1d1d1"
     inkscape:document-units="px"
     showborder="false"
     inkscape:zoom="1.1074137"
     inkscape:cx="333.6603"
     inkscape:cy="385.58308"
     inkscape:window-width="1861"
     inkscape:window-height="1048"
     inkscape:window-x="690"
     inkscape:window-y="1080"
     inkscape:window-maximized="0"
     inkscape:current-layer="layer1" />
  <defs
     id="defs1" />
  <g
     inkscape:label="Layer 1"
     inkscape:groupmode="layer"
     id="layer1"
     transform="translate(-1.2636719,-257.31055)">
    <path
       id="path9"
       style="fill:#ffffff;stroke:none;stroke-width:2.52809;stroke-linecap:round;stroke-linejoin:round"
       d="M 112.5,257.31054 A 111.23595,111.23595 0 0 0 1.2636719,368.54687 111.23595,111.23595 0 0 0 112.5,479.7832 111.23595,111.23595 0 0 0 223.73633,368.54687 111.23595,111.23595 0 0 0 112.5,257.31054 Z m 0,48.66211 A 62.575047,62.575047 0 0 1 175.07422,368.54687 62.575047,62.575047 0 0 1 112.5,431.12109 62.575047,62.575047 0 0 1 49.925781,368.54687 62.575047,62.575047 0 0 1 112.5,305.97265 Z" />
  </g>
</svg>
