<?xml version="1.0" encoding="UTF-8" standalone="no"?>
<!-- Created with Inkscape (http://www.inkscape.org/) -->

<svg
   width="1280"
   height="720"
   viewBox="0 0 1280 720"
   version="1.1"
   id="svg1"
   inkscape:version="1.3.2 (091e20e, 2023-11-25, custom)"
   sodipodi:docname="progress_bars.svg"
   xmlns:inkscape="http://www.inkscape.org/namespaces/inkscape"
   xmlns:sodipodi="http://sodipodi.sourceforge.net/DTD/sodipodi-0.dtd"
   xmlns="http://www.w3.org/2000/svg"
   xmlns:svg="http://www.w3.org/2000/svg">
  <sodipodi:namedview
     id="namedview1"
     pagecolor="#d1d1d1"
     bordercolor="#eeeeee"
     borderopacity="1"
     inkscape:showpageshadow="0"
     inkscape:pageopacity="0"
     inkscape:pagecheckerboard="0"
     inkscape:deskcolor="#d1d1d1"
     inkscape:document-units="px"
     showborder="false"
     inkscape:zoom="1.1074137"
     inkscape:cx="95.267014"
     inkscape:cy="376.55303"
     inkscape:window-width="1861"
     inkscape:window-height="1048"
     inkscape:window-x="690"
     inkscape:window-y="1080"
     inkscape:window-maximized="0"
     inkscape:current-layer="layer1" />
  <defs
     id="defs1" />
  <g
     inkscape:label="Layer 1"
     inkscape:groupmode="layer"
     id="layer1">
    <path
       id="path1"
       style="fill:#364e59;stroke:none;stroke-width:2.52809;stroke-linecap:round;stroke-linejoin:round"
       d="M 112.5,1.2636719 A 111.23595,111.23595 0 0 0 1.2636719,112.5 111.23595,111.23595 0 0 0 112.5,223.73633 111.23595,111.23595 0 0 0 223.73633,112.5 111.23595,111.23595 0 0 0 112.5,1.2636719 Z m 0,48.6621091 A 62.575047,62.575047 0 0 1 175.07422,112.5 62.575047,62.575047 0 0 1 112.5,175.07422 62.575047,62.575047 0 0 1 49.925781,112.5 62.575047,62.575047 0 0 1 112.5,49.925781 Z"
       sodipodi:insensitive="true" />
    <rect
       style="fill:#364e59;stroke:none;stroke-width:2.38578;stroke-linecap:round;stroke-linejoin:round"
       id="rect8"
       width="27.614216"
       height="222.61421"
       x="315.33731"
       y="1.1928959"
       rx="4.6023693"
       ry="4.9469824"
       inkscape:export-filename="godot_4\progress_bars\vertical\vertical_bottom.svg"
       inkscape:export-xdpi="96"
       inkscape:export-ydpi="96"
       sodipodi:insensitive="true" />
    <path
       id="path9"
       style="fill:#ffffff;stroke:none;stroke-width:2.52809;stroke-linecap:round;stroke-linejoin:round"
       d="M 112.5,257.31054 A 111.23595,111.23595 0 0 0 1.2636719,368.54687 111.23595,111.23595 0 0 0 112.5,479.7832 111.23595,111.23595 0 0 0 223.73633,368.54687 111.23595,111.23595 0 0 0 112.5,257.31054 Z m 0,48.66211 A 62.575047,62.575047 0 0 1 175.07422,368.54687 62.575047,62.575047 0 0 1 112.5,431.12109 62.575047,62.575047 0 0 1 49.925781,368.54687 62.575047,62.575047 0 0 1 112.5,305.97265 Z"
       sodipodi:insensitive="true" />
    <rect
       style="fill:#ffffff;stroke:none;stroke-width:2.38578;stroke-linecap:round;stroke-linejoin:round"
       id="rect16"
       width="27.614216"
       height="222.61421"
       x="315.33731"
       y="257.23978"
       rx="4.6023693"
       ry="4.9469824"
       inkscape:export-filename="godot_4\progress_bars\vertical\vertical_progress.svg"
       inkscape:export-xdpi="96"
       inkscape:export-ydpi="96"
       sodipodi:insensitive="true" />
    <path
       id="path17"
       style="fill:none;stroke:#0e232e;stroke-width:2.52809;stroke-linecap:round;stroke-linejoin:round"
       d="M 112.5,513.35779 A 111.23595,111.23595 0 0 0 1.2636719,624.59412 111.23595,111.23595 0 0 0 112.5,735.83045 111.23595,111.23595 0 0 0 223.73633,624.59412 111.23595,111.23595 0 0 0 112.5,513.35779 Z m 0,48.66211 A 62.575047,62.575047 0 0 1 175.07422,624.59412 62.575047,62.575047 0 0 1 112.5,687.16834 62.575047,62.575047 0 0 1 49.925781,624.59412 62.575047,62.575047 0 0 1 112.5,562.0199 Z" />
    <rect
       style="fill:none;stroke:#0e232e;stroke-width:2.38578;stroke-linecap:round;stroke-linejoin:round"
       id="rect24"
       width="27.614216"
       height="222.61421"
       x="315.33731"
       y="513.28705"
       rx="4.6023693"
       ry="4.9469824"
       inkscape:export-filename="godot_4\progress_bars\vertical\vertical_top.svg"
       inkscape:export-xdpi="96"
       inkscape:export-ydpi="96"
       sodipodi:insensitive="true" />
    <rect
       style="fill:#ffffff;stroke:none;stroke-width:2.5;stroke-linecap:round;stroke-linejoin:round"
       id="rect25"
       width="400"
       height="225"
       x="-430.72623"
       y="256.04688"
       sodipodi:insensitive="true" />
    <path
       id="path25"
       style="fill:#b50000;stroke:#2d2d2d;stroke-width:2.52809;stroke-linecap:round;stroke-linejoin:round"
       d="M -318.22624,257.31054 A 111.23595,111.23595 0 0 0 -429.46257,368.54687 111.23595,111.23595 0 0 0 -318.22624,479.7832 111.23595,111.23595 0 0 0 -206.98991,368.54687 111.23595,111.23595 0 0 0 -318.22624,257.31054 Z m 0,48.6621 a 62.575047,62.575047 0 0 1 62.57422,62.57423 62.575047,62.575047 0 0 1 -62.57422,62.57421 62.575047,62.575047 0 0 1 -62.57422,-62.57421 62.575047,62.575047 0 0 1 62.57422,-62.57423 z"
       sodipodi:insensitive="true" />
    <rect
       style="fill:#b50000;stroke:#2d2d2d;stroke-width:2.38578;stroke-linecap:round;stroke-linejoin:round"
       id="rect32"
       width="27.614216"
       height="222.61421"
       x="-115.38893"
       y="257.23978"
       rx="4.6023693"
       ry="4.9469824"
       sodipodi:insensitive="true" />
    <g
       id="g39"
       transform="translate(13.587429)"
       sodipodi:insensitive="true">
      <rect
         style="fill:#b50000;stroke:#2d2d2d;stroke-width:2.5;stroke-linecap:round;stroke-linejoin:round"
         id="rect33"
         width="25"
         height="25"
         x="-187.24127"
         y="257.29688"
         rx="5"
         ry="5" />
      <rect
         style="fill:#b50000;stroke:#2d2d2d;stroke-width:2.5;stroke-linecap:round;stroke-linejoin:round"
         id="rect34"
         width="25"
         height="25"
         x="-187.10017"
         y="290.21353"
         rx="5"
         ry="5" />
      <rect
         style="fill:#b50000;stroke:#2d2d2d;stroke-width:2.5;stroke-linecap:round;stroke-linejoin:round"
         id="rect35"
         width="25"
         height="25"
         x="-187.10017"
         y="323.13022"
         rx="5"
         ry="5" />
      <rect
         style="fill:#b50000;stroke:#2d2d2d;stroke-width:2.5;stroke-linecap:round;stroke-linejoin:round"
         id="rect36"
         width="25"
         height="25"
         x="-187.10017"
         y="356.04688"
         rx="5"
         ry="5" />
      <rect
         style="fill:#b50000;stroke:#2d2d2d;stroke-width:2.5;stroke-linecap:round;stroke-linejoin:round"
         id="rect37"
         width="25"
         height="25"
         x="-187.10017"
         y="388.96353"
         rx="5"
         ry="5" />
      <rect
         style="fill:#b50000;stroke:#2d2d2d;stroke-width:2.5;stroke-linecap:round;stroke-linejoin:round"
         id="rect38"
         width="25"
         height="25"
         x="-187.10017"
         y="421.88022"
         rx="5"
         ry="5" />
      <rect
         style="fill:#b50000;stroke:#2d2d2d;stroke-width:2.5;stroke-linecap:round;stroke-linejoin:round"
         id="rect39"
         width="25"
         height="25"
         x="-187.38237"
         y="454.79688"
         rx="5"
         ry="5" />
    </g>
    <g
       id="g46"
       transform="translate(444.27809,-256.04724)"
       style="fill:#364e59;stroke:none"
       inkscape:export-filename="godot_4\progress_bars\blocks\block_bottom.svg"
       inkscape:export-xdpi="96"
       inkscape:export-ydpi="96"
       sodipodi:insensitive="true">
      <rect
         style="fill:#364e59;stroke:none;stroke-width:2.5;stroke-linecap:round;stroke-linejoin:round"
         id="rect40"
         width="25"
         height="25"
         x="-187.24127"
         y="257.29688"
         rx="5"
         ry="5" />
      <rect
         style="fill:#364e59;stroke:none;stroke-width:2.5;stroke-linecap:round;stroke-linejoin:round"
         id="rect41"
         width="25"
         height="25"
         x="-187.10017"
         y="290.21353"
         rx="5"
         ry="5" />
      <rect
         style="fill:#364e59;stroke:none;stroke-width:2.5;stroke-linecap:round;stroke-linejoin:round"
         id="rect42"
         width="25"
         height="25"
         x="-187.10017"
         y="323.13022"
         rx="5"
         ry="5" />
      <rect
         style="fill:#364e59;stroke:none;stroke-width:2.5;stroke-linecap:round;stroke-linejoin:round"
         id="rect43"
         width="25"
         height="25"
         x="-187.10017"
         y="356.04688"
         rx="5"
         ry="5" />
      <rect
         style="fill:#364e59;stroke:none;stroke-width:2.5;stroke-linecap:round;stroke-linejoin:round"
         id="rect44"
         width="25"
         height="25"
         x="-187.10017"
         y="388.96353"
         rx="5"
         ry="5" />
      <rect
         style="fill:#364e59;stroke:none;stroke-width:2.5;stroke-linecap:round;stroke-linejoin:round"
         id="rect45"
         width="25"
         height="25"
         x="-187.10017"
         y="421.88022"
         rx="5"
         ry="5" />
      <rect
         style="fill:#364e59;stroke:none;stroke-width:2.5;stroke-linecap:round;stroke-linejoin:round"
         id="rect46"
         width="25"
         height="25"
         x="-187.38237"
         y="454.79688"
         rx="5"
         ry="5" />
    </g>
    <g
       id="g53"
       transform="translate(444.27809)"
       style="fill:#ffffff;stroke:none"
       inkscape:export-filename="godot_4\progress_bars\blocks\block_progress.svg"
       inkscape:export-xdpi="96"
       inkscape:export-ydpi="96"
       sodipodi:insensitive="true">
      <rect
         style="fill:#ffffff;stroke:none;stroke-width:2.5;stroke-linecap:round;stroke-linejoin:round"
         id="rect47"
         width="25"
         height="25"
         x="-187.24127"
         y="257.29688"
         rx="5"
         ry="5" />
      <rect
         style="fill:#ffffff;stroke:none;stroke-width:2.5;stroke-linecap:round;stroke-linejoin:round"
         id="rect48"
         width="25"
         height="25"
         x="-187.10017"
         y="290.21353"
         rx="5"
         ry="5" />
      <rect
         style="fill:#ffffff;stroke:none;stroke-width:2.5;stroke-linecap:round;stroke-linejoin:round"
         id="rect49"
         width="25"
         height="25"
         x="-187.10017"
         y="323.13022"
         rx="5"
         ry="5" />
      <rect
         style="fill:#ffffff;stroke:none;stroke-width:2.5;stroke-linecap:round;stroke-linejoin:round"
         id="rect50"
         width="25"
         height="25"
         x="-187.10017"
         y="356.04688"
         rx="5"
         ry="5" />
      <rect
         style="fill:#ffffff;stroke:none;stroke-width:2.5;stroke-linecap:round;stroke-linejoin:round"
         id="rect51"
         width="25"
         height="25"
         x="-187.10017"
         y="388.96353"
         rx="5"
         ry="5" />
      <rect
         style="fill:#ffffff;stroke:none;stroke-width:2.5;stroke-linecap:round;stroke-linejoin:round"
         id="rect52"
         width="25"
         height="25"
         x="-187.10017"
         y="421.88022"
         rx="5"
         ry="5" />
      <rect
         style="fill:#ffffff;stroke:none;stroke-width:2.5;stroke-linecap:round;stroke-linejoin:round"
         id="rect53"
         width="25"
         height="25"
         x="-187.38237"
         y="454.79688"
         rx="5"
         ry="5" />
    </g>
    <g
       id="g60"
       transform="translate(444.31367,256.04724)"
       style="fill:none;stroke:#0e232e"
       inkscape:export-filename="godot_4\progress_bars\blocks\block_top.svg"
       inkscape:export-xdpi="96"
       inkscape:export-ydpi="96"
       sodipodi:insensitive="true">
      <rect
         style="fill:none;stroke:#0e232e;stroke-width:2.5;stroke-linecap:round;stroke-linejoin:round"
         id="rect54"
         width="25"
         height="25"
         x="-187.24127"
         y="257.29688"
         rx="5"
         ry="5" />
      <rect
         style="fill:none;stroke:#0e232e;stroke-width:2.5;stroke-linecap:round;stroke-linejoin:round"
         id="rect55"
         width="25"
         height="25"
         x="-187.10017"
         y="290.21353"
         rx="5"
         ry="5" />
      <rect
         style="fill:none;stroke:#0e232e;stroke-width:2.5;stroke-linecap:round;stroke-linejoin:round"
         id="rect56"
         width="25"
         height="25"
         x="-187.10017"
         y="323.13022"
         rx="5"
         ry="5" />
      <rect
         style="fill:none;stroke:#0e232e;stroke-width:2.5;stroke-linecap:round;stroke-linejoin:round"
         id="rect57"
         width="25"
         height="25"
         x="-187.10017"
         y="356.04688"
         rx="5"
         ry="5" />
      <rect
         style="fill:none;stroke:#0e232e;stroke-width:2.5;stroke-linecap:round;stroke-linejoin:round"
         id="rect58"
         width="25"
         height="25"
         x="-187.10017"
         y="388.96353"
         rx="5"
         ry="5" />
      <rect
         style="fill:none;stroke:#0e232e;stroke-width:2.5;stroke-linecap:round;stroke-linejoin:round"
         id="rect59"
         width="25"
         height="25"
         x="-187.10017"
         y="421.88022"
         rx="5"
         ry="5" />
      <rect
         style="fill:none;stroke:#0e232e;stroke-width:2.5;stroke-linecap:round;stroke-linejoin:round"
         id="rect60"
         width="25"
         height="25"
         x="-187.38237"
         y="454.79688"
         rx="5"
         ry="5" />
    </g>
  </g>
</svg>
